<?xml version="1.0" encoding="UTF-8" standalone="no"?>
<!-- Created with Inkscape (http://www.inkscape.org/) -->

<svg
   xmlns:dc="http://purl.org/dc/elements/1.1/"
   xmlns:cc="http://creativecommons.org/ns#"
   xmlns:rdf="http://www.w3.org/1999/02/22-rdf-syntax-ns#"
   xmlns:svg="http://www.w3.org/2000/svg"
   xmlns="http://www.w3.org/2000/svg"
   xmlns:sodipodi="http://sodipodi.sourceforge.net/DTD/sodipodi-0.dtd"
   xmlns:inkscape="http://www.inkscape.org/namespaces/inkscape"
   version="1.1"
   id="svg2"
   xml:space="preserve"
   width="407.116"
   height="407.12"
   viewBox="0 0 407.116 407.11999"
   sodipodi:docname="icon_push_outer.svg"
   inkscape:version="0.92.2 2405546, 2018-03-11"
   inkscape:export-filename="/home/tic/Development/karrot-docker/karrot-frontend/cordova/icon_push.png"
   inkscape:export-xdpi="11.32"
   inkscape:export-ydpi="11.32"><metadata
     id="metadata8"><rdf:RDF><cc:Work
         rdf:about=""><dc:format>image/svg+xml</dc:format><dc:type
           rdf:resource="http://purl.org/dc/dcmitype/StillImage" /><dc:title></dc:title></cc:Work></rdf:RDF></metadata><defs
     id="defs6"><clipPath
       clipPathUnits="userSpaceOnUse"
       id="clipPath18"><path
         d="M 0,551.584 H 595.28 V 0 H 0 Z"
         id="path16"
         inkscape:connector-curvature="0" /></clipPath><mask
       maskUnits="userSpaceOnUse"
       id="mask1483"><g
         id="g1535"
         mask="none"><rect
           style="opacity:1;fill:#ffffff;fill-opacity:1;stroke:#000000;stroke-width:15;stroke-linecap:round;stroke-linejoin:round;stroke-miterlimit:10;stroke-dasharray:none;stroke-dashoffset:1.21186769;stroke-opacity:1"
           id="rect1485"
           width="350.36484"
           height="335.49088"
           x="56.994904"
           y="-397.42538"
           transform="scale(1,-1)" /><g
           id="g1489"
           transform="translate(278.165,328.8574)"
           style="fill:#000000"><path
             d="m 0,0 -80.594,-11.706 1.281,-7.756 74.821,-7.722 z"
             style="fill:#000000;fill-opacity:1;fill-rule:nonzero;stroke:none"
             id="path1487"
             inkscape:connector-curvature="0" /></g><g
           id="g1493"
           transform="translate(270.1367,280.2754)"
           style="fill:#000000"><path
             d="m 0,0 -65.53,-5.702 1.667,-10.09 61.018,-1.426 z"
             style="fill:#000000;fill-opacity:1;fill-rule:nonzero;stroke:none"
             id="path1491"
             inkscape:connector-curvature="0" /></g><g
           id="g1497"
           transform="translate(261.4678,227.8125)"
           style="fill:#000000"><path
             d="m 0,0 1.05,6.352 -52.871,9.908 3.852,-23.313 z"
             style="fill:#000000;fill-opacity:1;fill-rule:nonzero;stroke:none"
             id="path1495"
             inkscape:connector-curvature="0" /></g><g
           id="g1501"
           transform="translate(260.4409,221.5967)"
           style="fill:#000000"><path
             d="m 0,0 -45.964,-6.758 2.801,-16.954 41.79,15.402 z"
             style="fill:#000000;fill-opacity:1;fill-rule:nonzero;stroke:none"
             id="path1499"
             inkscape:connector-curvature="0" /></g><g
           id="g1505"
           transform="translate(257.9424,206.4775)"
           style="fill:#000000"><path
             d="m 0,0 -39.668,-14.621 1.223,-7.402 34.263,-3.287 z"
             style="fill:#000000;fill-opacity:1;fill-rule:nonzero;stroke:none"
             id="path1503"
             inkscape:connector-curvature="0" /></g><g
           id="g1509"
           transform="translate(252.7793,175.2344)"
           style="fill:#000000"><path
             d="m 0,0 -32.27,3.095 2.502,-15.142 28.607,5.02 z"
             style="fill:#000000;fill-opacity:1;fill-rule:nonzero;stroke:none"
             id="path1507"
             inkscape:connector-curvature="0" /></g><g
           id="g1513"
           transform="translate(250.5811,161.9331)"
           style="fill:#000000"><path
             d="m 0,0 -26.591,-4.667 3.427,-20.74 20.812,11.173 z"
             style="fill:#000000;fill-opacity:1;fill-rule:nonzero;stroke:none"
             id="path1511"
             inkscape:connector-curvature="0" /></g><g
           id="g1517"
           transform="translate(233.9785,96.8223)"
           style="fill:#000000"><path
             d="M 0,0 C 0.516,-2.663 5.329,-2.663 5.844,0 L 8.81,17.952 -3.29,19.911 Z"
             style="fill:#000000;fill-opacity:1;fill-rule:nonzero;stroke:none"
             id="path1515"
             inkscape:connector-curvature="0" /></g><g
           id="g1521"
           transform="translate(246.9941,140.2266)"
           style="fill:#000000"><path
             d="m 0,0 -18.543,-9.956 1.205,-7.292 14.11,-2.285 z"
             style="fill:#000000;fill-opacity:1;fill-rule:nonzero;stroke:none"
             id="path1519"
             inkscape:connector-curvature="0" /></g><g
           id="g1525"
           transform="translate(266.3037,257.0786)"
           style="fill:#000000"><path
             d="m 0,0 -59.034,1.38 1.336,-8.087 54.89,-10.286 z"
             style="fill:#000000;fill-opacity:1;fill-rule:nonzero;stroke:none"
             id="path1523"
             inkscape:connector-curvature="0" /></g><g
           id="g1529"
           transform="translate(272.6929,295.7427)"
           style="fill:#000000"><path
             d="m 0,0 -72.826,7.516 3.759,-22.748 67.521,5.875 z"
             style="fill:#000000;fill-opacity:1;fill-rule:nonzero;stroke:none"
             id="path1527"
             inkscape:connector-curvature="0" /></g><g
           id="g1533"
           transform="translate(266.9844,347.0791)"
           style="fill:#000000"><path
             d="m 0,0 h -60.168 c -6.673,0 -12.083,-5.711 -12.083,-12.756 l 1.859,-11.25 82.441,11.973 C 11.692,-5.326 6.442,0 0,0"
             style="fill:#000000;fill-opacity:1;fill-rule:nonzero;stroke:none"
             id="path1531"
             inkscape:connector-curvature="0" /></g></g></mask></defs><sodipodi:namedview
     pagecolor="#ffffff"
     bordercolor="#666666"
     borderopacity="1"
     objecttolerance="10"
     gridtolerance="10"
     guidetolerance="10"
     inkscape:pageopacity="0"
     inkscape:pageshadow="2"
     inkscape:window-width="1920"
     inkscape:window-height="1143"
     id="namedview4"
     showgrid="false"
     fit-margin-top="0"
     fit-margin-left="0"
     fit-margin-right="0"
     fit-margin-bottom="0"
     inkscape:zoom="0.90762535"
     inkscape:cx="-62.682406"
     inkscape:cy="176.86119"
     inkscape:window-x="0"
     inkscape:window-y="0"
     inkscape:window-maximized="1"
     inkscape:current-layer="g10" /><g
     id="g10"
     inkscape:groupmode="layer"
     inkscape:label="foodsaving"
     transform="matrix(1.3333333,0,0,-1.3333333,-110.14826,509.53132)"><path
       inkscape:connector-curvature="0"
       id="path22"
       style="fill:#000000;fill-opacity:1;fill-rule:nonzero;stroke:none"
       d="m 387.4482,229.4775 c 0,-84.041 -68.126,-152.169 -152.169,-152.169 -84.042,0 -152.168,68.128 -152.168,152.169 0,84.044 68.126,152.171 152.168,152.171 84.043,0 152.169,-68.127 152.169,-152.171"
       mask="url(#mask1483)" /></g></svg>