<svg xmlns="http://www.w3.org/2000/svg" width="256" height="256"><path fill-opacity=".016" d="M0 128.004v128.004l128.25-.254 128.25-.254.254-127.75L257.008 0H0v128.004m.485.496c0 70.4.119 99.053.265 63.672.146-35.38.146-92.98 0-128C.604 29.153.485 58.1.485 128.5" fill="#4a3520" fill-rule="evenodd"/><path fill-opacity=".191" d="M114.746.587c-.341.341-4.206 1.242-8.588 2.003C45.49 13.118 1.111 65.845 1.026 127.5c-.084 60.237 41.865 111.974 101.04 124.616 14.744 3.15 37.124 3.15 51.868 0 71.253-15.222 115.123-86.036 96.993-156.562-11.979-46.602-51.487-83.688-98.677-92.63-3.437-.651-6.25-1.543-6.25-1.981 0-.93-30.334-1.276-31.254-.356" fill="#4a3520" fill-rule="evenodd"/><path fill-opacity=".232" d="M115.53 5.75c.346 3.162.931 8.9 1.3 12.75.585 6.11.924 7 2.67 7 1.873 0 1.988-.602 1.805-9.5-.282-13.726-.836-16-3.9-16-2.455 0-2.492.113-1.875 5.75m11.69 7c.263 11.99.399 12.75 2.28 12.75 1.881 0 2.017-.76 2.28-12.75L132.06 0h-5.12l.28 12.75m11.289-5.437c-.894 4.022-1.488 9.759-1.318 12.75.265 4.667.592 5.437 2.309 5.437 1.767 0 2.072-.874 2.622-7.5.342-4.125 1.127-9.3 1.744-11.5 1.599-5.695 1.438-6.5-1.298-6.5-2.205 0-2.583.68-4.059 7.313M98.888 30.5c-3.773 2.051-5.256 6.396-4.433 12.989.645 5.159.86 5.507 3.367 5.45 1.473-.034 17.078-2.191 34.678-4.795l32-4.734-.253-2.455c-.139-1.35-1.608-3.692-3.266-5.205L157.968 29l-28.234.04c-22.434.032-28.771.332-30.846 1.46M130 49.045c-17.875 2.661-32.826 4.865-33.225 4.897-.56.045-.008 5.806.647 6.753.212.306 58.008 6.305 60.746 6.305 2.335 0 2.52-.479 4.148-10.75 1.943-12.257 1.945-12.286.934-12.146-.412.056-15.375 2.28-33.25 4.941M98.396 68.75c.305 1.513 1.062 5.787 1.682 9.5.987 5.909 1.395 6.745 3.275 6.711 6.569-.118 53.434-4.711 54.445-5.336.661-.409 1.202-2.264 1.202-4.123 0-4.003 2.797-3.397-32.452-7.032-30.451-3.14-28.845-3.156-28.152.28M126.5 87.536c-13.2 1.247-24.133 2.311-24.295 2.365-.5.167.998 7.559 1.666 8.229.346.347 11.955.861 25.798 1.142 28.69.584 25.512 1.65 26.904-9.022l.685-5.25-3.379.134c-1.859.074-14.179 1.155-27.379 2.402m-21.75 16.047c-.266.266-.191 1.915.167 3.664l.65 3.179 19.466 3.644a14417.06 14417.06 0 0023.122 4.315l3.655.67 1.196-7.093c.658-3.901 1.039-7.226.845-7.39-.62-.525-48.599-1.491-49.101-.989m2.018 11.983c-.419.419 2.248 18.579 2.835 19.302.165.202 9.156-.921 19.981-2.495 18.152-2.639 19.762-3.039 20.722-5.144.633-1.391.679-2.618.117-3.14-.508-.471-9.923-2.508-20.923-4.527-11-2.018-20.519-3.84-21.152-4.047-.634-.207-1.345-.185-1.58.051m21.732 21.488c-9.9 1.552-18.038 2.85-18.084 2.884-.345.252 2.22 13.048 2.711 13.532.818.805 34.146-11.401 35.108-12.857 1.227-1.859.871-6.623-.485-6.497-.687.064-9.35 1.386-19.25 2.938m1.5 15.896l-15.5 5.807v3.372c0 3.338.054 3.378 5.5 4.044 3.025.371 9.608.983 14.628 1.36l9.128.687 1.089-6.36c2.169-12.668 2.396-14.859 1.533-14.788-.483.039-7.853 2.685-16.378 5.878m-14.349 17.733c-.17.169.126 3.01.658 6.313 1.132 7.031.568 6.881 15.621 4.142 8.774-1.596 9.493-1.908 10.354-4.489.508-1.526.714-2.984.458-3.241-.552-.551-26.64-3.176-27.091-2.725M132 185.564c-4.125.741-8.985 1.617-10.8 1.946-2.485.451-3.183 1.018-2.824 2.295.261.932 1 4.962 1.642 8.955l1.166 7.26 8.878-4.76c6.874-3.685 8.99-5.324 9.374-7.26 1.452-7.321 1.702-9.989.925-9.892-.473.06-4.236.715-8.361 1.456m-2.177 20.962c-7.642 3.923-8.119 4.446-7.243 7.937.68 2.711 2.368 3.436 8.868 3.81 3.945.227 3.948.224 4.713-4.273.421-2.475 1.027-5.963 1.347-7.75.321-1.787.225-3.228-.213-3.201-.437.027-3.799 1.592-7.472 3.477m-5.77 16.607c.153 3.992 2.816 16.136 3.741 17.061 2.193 2.193 3.979-.071 5.09-6.45 1.711-9.825 1.572-10.742-1.634-10.758-1.512-.007-3.763-.285-5-.616-1.54-.413-2.233-.172-2.197.763" fill="#4a3520" fill-rule="evenodd"/><path fill-opacity=".192" d="M100.213 30.507c-4.487 1.949-6.471 6.788-5.317 12.967.475 2.54 1.036 4.791 1.247 5.002.21.211 15.452-1.826 33.87-4.527s33.6-4.919 33.737-4.93c.826-.063.012-3.453-1.316-5.479-2.664-4.066-6.193-4.542-33.333-4.501-19.916.031-26.331.356-28.888 1.468m27.537 19.297c-28.934 4.301-30.749 4.693-30.735 6.634.009 1.134.346 2.535.75 3.112.574.82 61.235 7.794 61.898 7.116.089-.091 1.02-5.003 2.068-10.916L163.637 45l-2.568.117c-1.413.064-16.407 2.173-33.319 4.687M99 67.237c0 1.352 1.596 11.145 2.497 15.318.493 2.287-4.264 2.466 42.166-1.581l14.163-1.234.652-3.472c.358-1.91.509-3.596.336-3.746-.172-.151-12.464-1.476-27.314-2.945-14.85-1.47-28.237-2.911-29.75-3.204-1.941-.375-2.75-.121-2.75.864m31.044 20.501c-14.55 1.287-26.642 2.526-26.87 2.754-.228.228-.128 1.941.222 3.807l.637 3.393 13.641.654c7.503.36 18.905.654 25.336.654h11.694l1.111-6.704c.611-3.687 1.015-6.747.898-6.801-.117-.054-12.118.956-26.669 2.243m-25.029 18.012c.009.963.377 2.319.818 3.014.685 1.079 39.584 9.187 44.252 9.224 1.183.009 1.825-1.601 2.535-6.349l.951-6.361-10.441-.639c-5.743-.352-16.671-.639-24.286-.639-12.524 0-13.843.167-13.829 1.75m1.986 11c.001.412.676 4.575 1.499 9.25.823 4.675 1.498 8.542 1.499 8.594 0 .052 8.439-1.165 18.751-2.704 10.313-1.539 19.313-2.819 20-2.844.688-.025 1.25-1.162 1.25-2.527 0-2.897 1.769-2.359-23.135-7.027-20.807-3.899-19.866-3.769-19.864-2.742m31.499 19.309c-2.75.453-10.081 1.586-16.291 2.518l-11.291 1.695.689 4.594c1.479 9.862-.275 9.623 18.884 2.575 16.373-6.023 17.013-6.363 17.623-9.346.584-2.853.428-3.086-1.99-2.977-1.443.064-4.874.488-7.624.941m-9.301 17.726c-14.87 5.51-15.284 5.741-14.669 8.191.348 1.386.8 2.688 1.006 2.893.57.57 26.871 3.058 27.343 2.586.544-.545 3.001-14.318 3.068-17.205.029-1.238-.285-2.224-.697-2.193-.412.032-7.636 2.609-16.051 5.728m-12.81 20.071c.336 1.729.878 4.521 1.203 6.203.523 2.698.907 2.992 3.25 2.487 1.462-.315 6.383-1.223 10.936-2.018 9.741-1.7 10.222-1.933 10.222-4.958 0-2.174-.49-2.352-8.25-2.986-4.537-.37-10.437-.943-13.111-1.272l-4.861-.599.611 3.143m11.265 12.91l-8.846 1.526.611 3.051c.335 1.678.89 5.438 1.233 8.354.343 2.917.83 5.303 1.082 5.303.252 0 4.182-2.03 8.733-4.511 7.674-4.183 8.32-4.782 8.893-8.25 1.358-8.215 2.122-7.858-11.706-5.473M130 206.967c-5.271 2.878-6.56 4.069-6.817 6.297-.35 3.037.076 3.317 7.001 4.591l4.683.862 1.155-6.845c.634-3.764 1.002-7.207.816-7.65-.186-.443-3.263.792-6.838 2.745m-5 17.463c0 .926.52 4.831 1.155 8.677 1.024 6.201 1.388 6.958 3.223 6.692 1.743-.252 2.264-1.469 3.312-7.749.684-4.097 1.129-7.564.989-7.704-.14-.14-2.15-.558-4.467-.928-3.549-.568-4.212-.409-4.212 1.012" fill="#4a3520" fill-rule="evenodd"/></svg>