<?xml version="1.0" encoding="utf-8"?>
<!-- Generator: Adobe Illustrator 12.0.0, SVG Export Plug-In  -->
<!DOCTYPE svg PUBLIC "-//W3C//DTD SVG 1.1//EN" "http://www.w3.org/Graphics/SVG/1.1/DTD/svg11.dtd" [
	<!ENTITY ns_flows "http://ns.adobe.com/Flows/1.0/">
	<!ENTITY ns_svg "http://www.w3.org/2000/svg">
	<!ENTITY ns_xlink "http://www.w3.org/1999/xlink">
]>
<svg  version="1.1" xmlns="&ns_svg;" xmlns:xlink="&ns_xlink;" xmlns:a="http://ns.adobe.com/AdobeSVGViewerExtensions/3.0/"
	 width="450" height="450" viewBox="-6.132 -7.833 450 450" enable-background="new -6.132 -7.833 450 450" xml:space="preserve">
<defs>
</defs>
<g id="XMLID_8_">
	<g>
		<path fill="#FFFFFF" d="M180.068,132.207c-13.12,0-21.92-0.01-22.2-0.04c-1.67-0.17-43-68-50-80c62.16-34.83,179.84-30.35,234,0
			c-6.5,11-42,68.5-49,80C269.448,132.167,211.958,132.216,180.068,132.207z"/>
		<path d="M180.068,156.887c-58.8-0.27-110.68,0.04-121.2,2.28c-28.42,6.05-23,39.53-23,74c0,39.58,0,79.53,0,118
			c0,10.62-0.12,18.57,3,26c8.39,20.01,25.57,18,54,18c86.35,0,169.6,0,256,0c15.74,0,32.5,1.65,41-2c16.53-7.09,17-25.68,17-49
			c0-42.04,0-93.75,0-134c0-12.53,0.44-23.1-2-31c-7-22.71-24.11-21-54-21C314.398,158.167,243.238,157.187,180.068,156.887z
			 M180.068,132.207c31.89,0.01,89.38-0.04,112.8-0.04c7-11.5,42.5-69,49-80c-54.16-30.35-171.84-34.83-234,0
			c7,12,48.33,79.83,50,80C158.147,132.196,166.948,132.207,180.068,132.207z M433.198,38.336c4.24,12.12,3,28.38,3,43
			c0,82.5,0,184.75,0,272c0,15.34,1.46,30.94-2,43c-4.49,15.64-20.74,32.01-35,37c-21.01,7.34-60.271,3-89,3
			c-65.21,0-117.01,0-184,0c-28.7,0-67.51,4.16-88-3c-14.09-4.92-27.19-17.6-33-33c-7.86-20.86-4-53.29-4-89c0-76.71,0-153.26,0-230
			c0-17.33-0.55-33.6,4-45c7.64-19.17,25.72-31.43,46-34c25.68-3.26,60.61-1,89-1c56.01,0,114.5,0,175,0c28.189,0,64.34-3.87,84,3
			C415.238,9.946,428.377,24.546,433.198,38.336z"/>
		<path fill="#FFFFFF" d="M180.068,156.887c63.17,0.3,134.33,1.28,170.8,1.28c29.89,0,47-1.71,54,21c2.44,7.9,2,18.47,2,31
			c0,40.25,0,91.96,0,134c0,23.32-0.47,41.91-17,49c-8.5,3.65-25.26,2-41,2c-86.4,0-169.65,0-256,0c-28.43,0-45.61,2.01-54-18
			c-3.12-7.43-3-15.38-3-26c0-38.47,0-78.42,0-118c0-34.47-5.42-67.95,23-74C69.388,156.926,121.268,156.617,180.068,156.887z
			 M180.068,172.767c-0.08-1.3-0.99-0.08-0.25,0C179.888,172.787,179.968,172.776,180.068,172.767z"/>
		<path fill="#FFFFFF" d="M180.068,172.767c-0.1,0.01-0.18,0.02-0.25,0H180.068z"/>
		<path fill="#FFFFFF" d="M180.068,172.767h-0.25C179.078,172.687,179.988,171.466,180.068,172.767z"/>
	</g>
	<g>
	</g>
</g>
</svg>
