<?xml version="1.0" encoding="UTF-8" standalone="no"?>
<!-- Created with Inkscape (http://www.inkscape.org/) -->

<svg
   xmlns:dc="http://purl.org/dc/elements/1.1/"
   xmlns:cc="http://creativecommons.org/ns#"
   xmlns:rdf="http://www.w3.org/1999/02/22-rdf-syntax-ns#"
   xmlns:svg="http://www.w3.org/2000/svg"
   xmlns="http://www.w3.org/2000/svg"
   xmlns:sodipodi="http://sodipodi.sourceforge.net/DTD/sodipodi-0.dtd"
   xmlns:inkscape="http://www.inkscape.org/namespaces/inkscape"
   version="1.1"
   id="svg2"
   xml:space="preserve"
   width="405.78265"
   height="405.78665"
   viewBox="0 0 405.78266 405.78665"
   sodipodi:docname="carrot-button.svg"
   inkscape:version="0.92.2 2405546, 2018-03-11"><metadata
     id="metadata8"><rdf:RDF><cc:Work
         rdf:about=""><dc:format>image/svg+xml</dc:format><dc:type
           rdf:resource="http://purl.org/dc/dcmitype/StillImage" /><dc:title /></cc:Work></rdf:RDF></metadata><defs
     id="defs6"><clipPath
       clipPathUnits="userSpaceOnUse"
       id="clipPath18"><path
         d="M 0,551.584 H 595.28 V 0 H 0 Z"
         id="path16"
         inkscape:connector-curvature="0" /></clipPath></defs><sodipodi:namedview
     pagecolor="#ffffff"
     bordercolor="#666666"
     borderopacity="1"
     objecttolerance="10"
     gridtolerance="10"
     guidetolerance="10"
     inkscape:pageopacity="0"
     inkscape:pageshadow="2"
     inkscape:window-width="1920"
     inkscape:window-height="1023"
     id="namedview4"
     showgrid="false"
     fit-margin-top="0"
     fit-margin-left="0"
     fit-margin-right="0"
     fit-margin-bottom="0"
     inkscape:zoom="1.2835761"
     inkscape:cx="190.74362"
     inkscape:cy="162.17733"
     inkscape:window-x="0"
     inkscape:window-y="0"
     inkscape:window-maximized="1"
     inkscape:current-layer="g20" /><g
     id="g10"
     inkscape:groupmode="layer"
     inkscape:label="foodsaving"
     transform="matrix(1.3333333,0,0,-1.3333333,-110.81493,508.86465)"><g
       id="g12"><g
         id="g14"
         clip-path="url(#clipPath18)"><g
           id="g20"
           transform="translate(387.4482,229.4775)"><path
             d="m 0,0 c 0,-84.041 -68.126,-152.169 -152.169,-152.169 -84.042,0 -152.168,68.128 -152.168,152.169 0,84.044 68.126,152.171 152.168,152.171 C -68.126,152.171 0,84.044 0,0"
             style="fill:#fccb3f;fill-opacity:1;fill-rule:nonzero;stroke:none"
             id="path22"
             inkscape:connector-curvature="0" /></g><g
           id="g24"
           transform="translate(387.4482,229.4775)"><path
             d="m 0,0 c 0,-84.041 -68.126,-152.169 -152.169,-152.169 -84.042,0 -152.168,68.128 -152.168,152.169 0,84.044 68.126,152.171 152.168,152.171 C -68.126,152.171 0,84.044 0,0 Z"
             style="fill:none;stroke:#ffffff;stroke-width:1;stroke-linecap:butt;stroke-linejoin:miter;stroke-miterlimit:10;stroke-dasharray:none;stroke-opacity:1"
             id="path26"
             inkscape:connector-curvature="0" /></g><g
           id="g28"
           transform="matrix(0.57413372,-0.48038396,0.48038396,0.57413372,285.72232,240.02915)" /><g
           id="g32"
           transform="matrix(0.57413372,-0.48038396,0.48038396,0.57413372,257.77498,215.99325)" /><g
           id="g36"
           transform="matrix(0.57413372,-0.48038396,0.48038396,0.57413372,227.59554,190.03694)" /><g
           id="g44"
           transform="matrix(0.57413372,-0.48038396,0.48038396,0.57413372,215.32249,179.48135)" /><g
           id="g56"
           transform="matrix(0.57413372,-0.48038396,0.48038396,0.57413372,148.88741,128.03646)" /><g
           id="g60"
           transform="matrix(0.57413372,-0.48038396,0.48038396,0.57413372,177.21084,146.70385)" /><g
           id="g912"
           transform="matrix(1.2165044,0,0,1.2165044,-43.115809,-37.061538)"><g
             transform="matrix(0.57413372,-0.48038396,0.48038396,0.57413372,224.01999,186.96155)"
             id="g40"><path
               sodipodi:nodetypes="ccccc"
               inkscape:connector-curvature="0"
               id="path42"
               style="fill:#e96946;fill-opacity:1;fill-rule:nonzero;stroke:none"
               d="m 0,0 -45.964,-6.758 c 1.652081,-10.002628 3.501788,-21.192483 5.020491,-30.384202 l 34.2630004,-3.287 C -4.2135303,-25.497256 -2.3186656,-14.033584 0,0 Z" /></g><g
             transform="matrix(0.57413372,-0.48038396,0.48038396,0.57413372,197.3495,164.02389)"
             id="g48"><path
               sodipodi:nodetypes="ccccc"
               inkscape:connector-curvature="0"
               id="path50"
               style="fill:#e96946;fill-opacity:1;fill-rule:nonzero;stroke:none"
               d="m 0,0 -32.27,3.095 c 4.959867,-30.016207 8.740867,-52.891345 13.4692,-81.507104 0.516,-2.663 5.329,-2.663 5.844,0 C -8.2518726,-49.932483 -4.2092567,-25.476699 0,0 Z" /></g><g
             transform="matrix(0.57413372,-0.48038396,0.48038396,0.57413372,244.43095,204.51651)"
             id="g64"><path
               sodipodi:nodetypes="cccc"
               inkscape:connector-curvature="0"
               id="path66"
               style="fill:#e96946;fill-opacity:1;fill-rule:nonzero;stroke:none"
               d="m 0,0 -59.034,1.38 c 2.116291,-12.809524 4.384638,-26.535948 6.229112,-37.699097 l 47.9689998,7.053" /></g><g
             transform="matrix(0.57413372,-0.48038396,0.48038396,0.57413372,266.67282,223.6456)"
             id="g68"><path
               sodipodi:nodetypes="ccccc"
               inkscape:connector-curvature="0"
               id="path70"
               style="fill:#e96946;fill-opacity:1;fill-rule:nonzero;stroke:none"
               d="m 0,0 -72.826,7.516 c 2.355333,-14.2526653 4.149216,-25.110558 6.406811,-38.775306 l 61.0180002,-1.426 C -3.6205098,-21.906414 -1.6273003,-9.8491248 0,0 Z" /></g><g
             transform="matrix(0.57413372,-0.48038396,0.48038396,0.57413372,288.05656,255.86183)"
             id="g72"><path
               sodipodi:nodetypes="csccccc"
               inkscape:connector-curvature="0"
               id="path74"
               style="fill:#e96946;fill-opacity:1;fill-rule:nonzero;stroke:none"
               d="m 0,0 h -60.168 c -6.673,0 -12.083,-5.711 -12.083,-12.756 1.502003,-9.088943 2.654323,-16.061903 4.118619,-24.927696 l 74.821,-7.722 C 8.4996372,-34.284422 10.483224,-23.191826 12.049,-12.033 11.692,-5.326 6.442,0 0,0" /></g></g><g
           id="g84"
           transform="matrix(0.57413372,-0.48038396,0.48038396,0.57413372,316.77431,335.13542)"
           style="stroke-width:20.03746949;stroke-miterlimit:10;stroke-dasharray:none"><path
             d="M 0,0 37.854,8.039 C 16.27903,-11.791469 4.8519662,-27.634821 8.2263302,-55.838486"
             style="fill:none;stroke:#89af38;stroke-width:20.03746949;stroke-linecap:round;stroke-linejoin:round;stroke-miterlimit:10;stroke-dasharray:none;stroke-opacity:1"
             id="path86"
             inkscape:connector-curvature="0"
             sodipodi:nodetypes="ccc" /></g><g
           id="g88"
           transform="matrix(0.57413372,-0.48038396,0.48038396,0.57413372,328.53756,300.56557)"
           style="stroke-width:20.03746949;stroke-miterlimit:10;stroke-dasharray:none"><path
             d="M 0,0 -3.832,33.372"
             style="fill:none;stroke:#89af38;stroke-width:20.03746949;stroke-linecap:round;stroke-linejoin:round;stroke-miterlimit:10;stroke-dasharray:none;stroke-opacity:1"
             id="path90"
             inkscape:connector-curvature="0" /></g></g></g></g></svg>